<?xml version="1.0" encoding="UTF-8" standalone="no"?><!-- Generator: Gravit.io --><svg xmlns="http://www.w3.org/2000/svg" xmlns:xlink="http://www.w3.org/1999/xlink" style="isolation:isolate" viewBox="0 0 320 120" width="320pt" height="120pt"><defs><clipPath id="_clipPath_rpbdsDjo8WsLrSQGXKApY6Vu8TQkRPzd"><rect width="320" height="120"/></clipPath></defs><g clip-path="url(#_clipPath_rpbdsDjo8WsLrSQGXKApY6Vu8TQkRPzd)"><g><linearGradient id="_lgradient_6" x1="-0.14823780773257908" y1="0.7324968855014437" x2="0.8749634581048239" y2="-0.2200690977001254" gradientTransform="matrix(386.798,0,0,128,-41.798,7)" gradientUnits="userSpaceOnUse"><stop offset="1.3043478260869565%" stop-opacity="1" style="stop-color:rgb(162,0,151)"/><stop offset="99.1304347826087%" stop-opacity="1" style="stop-color:rgb(25,0,106)"/></linearGradient><path d=" M -30.649 25.581 Q 13.528 81.835 62.591 78.911 C 102.277 76.546 150.971 40.606 180.155 27.42 C 223.712 7.74 239.777 8.922 246.032 8.11 C 278.952 3.836 313.455 12.375 327.11 25.581 Q 353.137 50.749 341.299 135 L 147.15 134.081 L -41.798 130.403 L -30.649 25.581 Z " fill="url(#_lgradient_6)"/><defs><filter id="FCzbDASH4JZbGpDVwCsNm2mHVZxgwmhM" x="-200%" y="-200%" width="400%" height="400%" filterUnits="objectBoundingBox" color-interpolation-filters="sRGB"><feGaussianBlur xmlns="http://www.w3.org/2000/svg" in="SourceGraphic" stdDeviation="2.146804531419514"/><feOffset xmlns="http://www.w3.org/2000/svg" dx="0" dy="2" result="pf_100_offsetBlur"/><feFlood xmlns="http://www.w3.org/2000/svg" flood-color="#000000" flood-opacity="0.65"/><feComposite xmlns="http://www.w3.org/2000/svg" in2="pf_100_offsetBlur" operator="in" result="pf_100_dropShadow"/><feBlend xmlns="http://www.w3.org/2000/svg" in="SourceGraphic" in2="pf_100_dropShadow" mode="normal"/></filter></defs><g filter="url(#FCzbDASH4JZbGpDVwCsNm2mHVZxgwmhM)"><linearGradient id="_lgradient_7" x1="0.7698782295438769" y1="0.5391611382049228" x2="0.1730528922828678" y2="0.8531734811432534" gradientTransform="matrix(392.218,0,0,70.802,-57,54.084)" gradientUnits="userSpaceOnUse"><stop offset="2.1739130434782608%" stop-opacity="1" style="stop-color:rgb(107,66,157)"/><stop offset="99.1304347826087%" stop-opacity="1" style="stop-color:rgb(114,0,253)"/></linearGradient><path d=" M -38.757 57.763 Q 2.924 106.673 60.564 107.415 C 75.981 107.614 102.449 105.851 128.468 98.22 C 151.229 91.545 172.902 79.703 196.371 69.716 C 211.496 63.28 241.26 53.981 267.57 54.085 C 287.727 54.164 309.205 62.362 320.441 77.089 Q 344.746 108.944 329.076 122.102 L -57 124.886 L -38.757 57.763 Z " fill="url(#_lgradient_7)"/></g></g></g></svg>