<?xml version="1.0" encoding="UTF-8" standalone="no"?><!-- Generator: Gravit.io --><svg xmlns="http://www.w3.org/2000/svg" xmlns:xlink="http://www.w3.org/1999/xlink" style="isolation:isolate" viewBox="0 0 1366 640" width="1366pt" height="640pt"><defs><clipPath id="_clipPath_45aAoIS4sy8qe1JL37N60ZJl8EhrhYEG"><rect width="1366" height="640"/></clipPath></defs><g clip-path="url(#_clipPath_45aAoIS4sy8qe1JL37N60ZJl8EhrhYEG)"><g><linearGradient id="_lgradient_20" x1="-0.14823780773257908" y1="0.7324968855014437" x2="0.8749634581048239" y2="-0.2200690977001254" gradientTransform="matrix(1364,0,0,265.67,-57,327.456)" gradientUnits="userSpaceOnUse"><stop offset="1.3043478260869565%" stop-opacity="1" style="stop-color:rgb(162,0,151)"/><stop offset="99.1304347826087%" stop-opacity="1" style="stop-color:rgb(25,0,106)"/></linearGradient><path d=" M -55 355.929 Q 25.867 460.211 97.764 487.449 C 190.238 522.484 302.95 510.699 351.072 500.087 C 466.321 474.674 576.388 419.132 620.174 402.087 C 657.81 387.436 710.191 366.961 743.532 355.929 C 780.253 343.779 819.494 334.627 844.437 331.454 Q 1130.445 295.071 1307 589.775 L -57 593.126 L -55 355.929 Z " fill="url(#_lgradient_20)"/><defs><filter id="kWwHWuvPMNur1OQfBOpJ9rUz14SFvqHK" x="-200%" y="-200%" width="400%" height="400%" filterUnits="objectBoundingBox" color-interpolation-filters="sRGB"><feGaussianBlur xmlns="http://www.w3.org/2000/svg" in="SourceGraphic" stdDeviation="2.146804531419514"/><feOffset xmlns="http://www.w3.org/2000/svg" dx="0" dy="2" result="pf_100_offsetBlur"/><feFlood xmlns="http://www.w3.org/2000/svg" flood-color="#000000" flood-opacity="0.65"/><feComposite xmlns="http://www.w3.org/2000/svg" in2="pf_100_offsetBlur" operator="in" result="pf_100_dropShadow"/><feBlend xmlns="http://www.w3.org/2000/svg" in="SourceGraphic" in2="pf_100_dropShadow" mode="normal"/></filter></defs><g filter="url(#kWwHWuvPMNur1OQfBOpJ9rUz14SFvqHK)"><linearGradient id="_lgradient_21" x1="0.7698782295438769" y1="0.5391611382049228" x2="0.1730528922828678" y2="0.8531734811432534" gradientTransform="matrix(1530.499,0,0,345.638,-82.499,353.818)" gradientUnits="userSpaceOnUse"><stop offset="2.1739130434782608%" stop-opacity="1" style="stop-color:rgb(107,66,157)"/><stop offset="99.1304347826087%" stop-opacity="1" style="stop-color:rgb(114,0,253)"/></linearGradient><path d=" M -24.927 408.621 C 5.185 415.247 8.737 524.204 201.151 565.521 C 219.851 569.536 337.738 578.871 437.679 559.936 C 481.087 551.712 587.133 538.553 786.206 462.767 C 948.643 407.498 1030.951 384.059 1073.68 373.409 C 1295.915 318.018 1464.678 383.648 1446.685 525.313 L 1431.759 699.456 L -82.499 693.963 L -24.927 408.621 Z " fill="url(#_lgradient_21)"/></g></g><g><g opacity="0.25"><linearGradient id="_lgradient_22" x1="0.5222660627555573" y1="0.2657202646211591" x2="0.5222660627555573" y2="1.0223364208033834" gradientTransform="matrix(76.353,0,0,75.233,66.722,42.496)" gradientUnits="userSpaceOnUse"><stop offset="0%" stop-opacity="1" style="stop-color:rgb(226,253,139)"/><stop offset="97.82608695652173%" stop-opacity="1" style="stop-color:rgb(0,247,226)"/></linearGradient><ellipse vector-effect="non-scaling-stroke" cx="104.89799265152234" cy="80.11323080906133" rx="38.176405925929856" ry="37.61673584899316" fill="url(#_lgradient_22)" stroke-width="2" stroke="rgb(185,185,185)" stroke-linejoin="miter" stroke-linecap="square" stroke-miterlimit="3"/></g><ellipse vector-effect="non-scaling-stroke" cx="104.89799265152229" cy="80.11323080906135" rx="30.990258928107615" ry="30.535938512711965" fill="none" stroke-width="2" stroke="rgb(185,185,185)" stroke-opacity="0.25" stroke-linejoin="miter" stroke-linecap="square" stroke-miterlimit="3"/><ellipse vector-effect="non-scaling-stroke" cx="104.8979926515224" cy="80.11323080906133" rx="38.17640592592983" ry="37.61673584899316" fill="none"/><linearGradient id="_lgradient_23" x1="0.5222660627555573" y1="0.2657202646211591" x2="0.5222660627555573" y2="1.0223364208033834" gradientTransform="matrix(50.276,0,0,49.539,79.76,55.344)" gradientUnits="userSpaceOnUse"><stop offset="0%" stop-opacity="1" style="stop-color:rgb(226,253,139)"/><stop offset="97.82608695652173%" stop-opacity="1" style="stop-color:rgb(0,247,226)"/></linearGradient><ellipse vector-effect="non-scaling-stroke" cx="104.89799265152232" cy="80.11323080906112" rx="25.1378963768193" ry="24.769372204414566" fill="url(#_lgradient_23)" stroke-width="2" stroke="rgb(185,185,185)" stroke-opacity="0.25" stroke-linejoin="miter" stroke-linecap="square" stroke-miterlimit="3"/></g><g><linearGradient id="_lgradient_24" x1="0.17771958032268742" y1="0.12821762953468865" x2="0.5101164257297812" y2="0.9490742650625382" gradientTransform="matrix(76.373,0,0,75.253,1252.734,513.456)" gradientUnits="userSpaceOnUse"><stop offset="0%" stop-opacity="1" style="stop-color:rgb(234,177,0)"/><stop offset="96.95652173913044%" stop-opacity="1" style="stop-color:rgb(224,39,77)"/></linearGradient><ellipse vector-effect="non-scaling-stroke" cx="1290.9205674291602" cy="551.082603939886" rx="38.18627719525671" ry="37.62646240448623" fill="url(#_lgradient_24)" fill-opacity="0.25" stroke-width="2" stroke="rgb(185,185,185)" stroke-opacity="0.25" stroke-linejoin="miter" stroke-linecap="square" stroke-miterlimit="3"/><linearGradient id="_lgradient_25" x1="0.17771958032268742" y1="0.12821762953468865" x2="0.5101164257297812" y2="0.9490742650625382" gradientTransform="matrix(49.418,0,0,48.693,1266.212,526.736)" gradientUnits="userSpaceOnUse"><stop offset="0%" stop-opacity="1" style="stop-color:rgb(234,177,0)"/><stop offset="96.95652173913044%" stop-opacity="1" style="stop-color:rgb(224,39,77)"/></linearGradient><ellipse vector-effect="non-scaling-stroke" cx="1290.9205674291622" cy="551.0826039398859" rx="24.708767596930784" ry="24.346534497020457" fill="url(#_lgradient_25)" stroke-width="2" stroke="rgb(185,185,185)" stroke-opacity="0.25" stroke-linejoin="miter" stroke-linecap="square" stroke-miterlimit="3"/><ellipse vector-effect="non-scaling-stroke" cx="1290.9205674291609" cy="551.082603939886" rx="30.998272076149533" ry="30.543834187171" fill="none" stroke-width="2" stroke="rgb(185,185,185)" stroke-opacity="0.25" stroke-linejoin="miter" stroke-linecap="square" stroke-miterlimit="3"/></g><path d=" M 128.051 425.341 L 100.855 428.753 L 97.379 455.549 L 93.916 428.751 L 66.722 425.327 L 93.918 421.914 L 97.393 395.119 L 100.856 421.916 L 128.051 425.341 Z " fill="rgb(0,255,255)" fill-opacity="0.75"/><path d=" M 1324.59 47.639 L 1297.394 51.051 L 1293.919 77.847 L 1290.456 51.049 L 1263.261 47.625 L 1290.457 44.213 L 1293.933 17.417 L 1297.396 44.214 L 1324.59 47.639 Z " fill="rgb(0,255,255)" fill-opacity="0.75"/><path d=" M 291.894 168.564 L 269.797 171.336 L 266.973 193.108 L 264.159 171.335 L 242.064 168.552 L 264.161 165.78 L 266.985 144.008 L 269.798 165.781 L 291.894 168.564 Z " fill="rgb(0,255,255)" fill-opacity="0.75"/><path d=" M 1124.451 234.3 L 1102.354 237.072 L 1099.53 258.843 L 1096.716 237.071 L 1074.621 234.288 L 1096.718 231.516 L 1099.542 209.744 L 1102.355 231.517 L 1124.451 234.3 Z " fill="rgb(0,255,255)" fill-opacity="0.75"/><ellipse vector-effect="non-scaling-stroke" cx="150.99183580353971" cy="468.895463323136" rx="7.342402101677237" ry="7.23476172408067" fill="rgb(0,255,255)" fill-opacity="0.75"/><ellipse vector-effect="non-scaling-stroke" cx="1345.6575978983228" cy="85.08155890572434" rx="7.34240210167718" ry="7.234761724080698" fill="rgb(0,255,255)" fill-opacity="0.75"/><ellipse vector-effect="non-scaling-stroke" cx="309.0107926353523" cy="198.98575680866134" rx="5.965683287212528" ry="5.878225750460331" fill="rgb(0,255,255)" fill-opacity="0.75"/><ellipse vector-effect="non-scaling-stroke" cx="1141.5676889715219" cy="264.7216010882794" rx="5.9656832872126415" ry="5.878225750460331" fill="rgb(0,255,255)" fill-opacity="0.75"/><path d=" M 70.854 211.44 Q 76.256 206.118 116.994 175.282 Q 85.699 215.423 80.298 220.745 C 77.597 223.406 75.705 224.38 74.163 224.367 C 72.621 224.355 69.959 223.962 68.656 222.678 C 66.05 220.11 65.453 216.763 70.854 211.44 Z " fill="rgb(0,255,255)" fill-opacity="0.75"/><path d=" M 1264.945 150.318 Q 1270.346 144.996 1311.084 114.16 Q 1279.79 154.301 1274.388 159.623 C 1271.687 162.284 1269.796 163.258 1268.254 163.245 C 1266.712 163.232 1264.049 162.84 1262.746 161.556 C 1260.14 158.988 1259.543 155.64 1264.945 150.318 Z " fill="rgb(0,255,255)" fill-opacity="0.75"/></g></svg>