<?xml version="1.0" encoding="UTF-8" standalone="no"?><!-- Generator: Gravit.io --><svg xmlns="http://www.w3.org/2000/svg" xmlns:xlink="http://www.w3.org/1999/xlink" style="isolation:isolate" viewBox="0 0 1024 500" width="1024pt" height="500pt"><defs><clipPath id="_clipPath_sKJdUTXU7NxWsfby49yBooJ64TmLr65z"><rect width="1024" height="500"/></clipPath></defs><g clip-path="url(#_clipPath_sKJdUTXU7NxWsfby49yBooJ64TmLr65z)"><g><g><linearGradient id="_lgradient_96" x1="-0.14823780773257908" y1="0.7324968855014437" x2="0.8749634581048239" y2="-0.2200690977001254" gradientTransform="matrix(1033.43,0,0,201.284,-423,361.319)" gradientUnits="userSpaceOnUse"><stop offset="1.3043478260869565%" stop-opacity="1" style="stop-color:rgb(162,0,151)"/><stop offset="99.1304347826087%" stop-opacity="1" style="stop-color:rgb(25,0,106)"/></linearGradient><path d=" M -421.485 382.891 Q -360.216 461.9 -305.744 482.537 C -235.681 509.081 -150.285 500.152 -113.825 492.112 C -26.508 472.858 56.884 430.777 90.058 417.863 C 118.574 406.763 158.26 391.25 183.521 382.891 C 211.342 373.686 241.073 366.752 259.971 364.348 Q 476.664 336.782 610.43 560.064 L -423 562.603 L -421.485 382.891 Z " fill="url(#_lgradient_96)"/><defs><filter id="qJz5QoqQj9JoY7WW5c0qz8a31EoO7RCv" x="-200%" y="-200%" width="400%" height="400%" filterUnits="objectBoundingBox" color-interpolation-filters="sRGB"><feGaussianBlur xmlns="http://www.w3.org/2000/svg" in="SourceGraphic" stdDeviation="2.146804531419514"/><feOffset xmlns="http://www.w3.org/2000/svg" dx="0" dy="2" result="pf_100_offsetBlur"/><feFlood xmlns="http://www.w3.org/2000/svg" flood-color="#000000" flood-opacity="0.65"/><feComposite xmlns="http://www.w3.org/2000/svg" in2="pf_100_offsetBlur" operator="in" result="pf_100_dropShadow"/><feBlend xmlns="http://www.w3.org/2000/svg" in="SourceGraphic" in2="pf_100_dropShadow" mode="normal"/></filter></defs><g filter="url(#qJz5QoqQj9JoY7WW5c0qz8a31EoO7RCv)"><linearGradient id="_lgradient_97" x1="0.7698782295438769" y1="0.5391611382049228" x2="0.1730528922828678" y2="0.8531734811432534" gradientTransform="matrix(1147,0,0,261.872,-120,376.809)" gradientUnits="userSpaceOnUse"><stop offset="2.1739130434782608%" stop-opacity="1" style="stop-color:rgb(107,66,157)"/><stop offset="99.1304347826087%" stop-opacity="1" style="stop-color:rgb(114,0,253)"/></linearGradient><path d=" M -120 425.603 C -93.567 430.623 -54.779 533.369 140.115 528.974 C 182.518 528.018 271.309 528.773 446.061 471.354 C 588.652 429.48 660.904 399.721 698.413 391.653 C 893.496 349.685 1041.64 399.41 1025.845 506.742 L 1012.744 638.681 L -117.931 635.603 L -120 425.603 Z " fill="url(#_lgradient_97)"/></g></g><path d=" M 87.555 333.676 L 70.298 335.841 L 68.092 352.845 L 65.895 335.84 L 48.638 333.667 L 65.896 331.502 L 68.101 314.498 L 70.299 331.503 L 87.555 333.676 Z " fill="rgb(0,255,255)" fill-opacity="0.75"/><path d=" M 921.776 333.676 L 939.034 335.841 L 941.239 352.845 L 943.437 335.84 L 960.693 333.667 L 943.436 331.502 L 941.23 314.498 L 939.033 331.503 L 921.776 333.676 Z " fill="rgb(0,255,255)" fill-opacity="0.75"/><path d=" M 157.843 115.672 L 141.101 117.772 L 138.962 134.267 L 136.83 117.771 L 120.09 115.663 L 136.831 113.563 L 138.971 97.068 L 141.102 113.564 L 157.843 115.672 Z " fill="rgb(0,255,255)" fill-opacity="0.75"/><path d=" M 851.489 115.672 L 868.23 117.772 L 870.37 134.267 L 872.501 117.771 L 889.242 115.663 L 872.5 113.563 L 870.361 97.068 L 868.229 113.564 L 851.489 115.672 Z " fill="rgb(0,255,255)" fill-opacity="0.75"/><ellipse vector-effect="non-scaling-stroke" cx="102.11274683503463" cy="361.31432903153325" rx="4.659207036921288" ry="4.590902577725274" fill="rgb(0,255,255)" fill-opacity="0.75"/><ellipse vector-effect="non-scaling-stroke" cx="907.2186089632179" cy="361.31432903153325" rx="4.659207036921316" ry="4.590902577725274" fill="rgb(0,255,255)" fill-opacity="0.75"/><ellipse vector-effect="non-scaling-stroke" cx="170.8114751024055" cy="138.7210726418562" rx="4.519880695847036" ry="4.453618775285491" fill="rgb(0,255,255)" fill-opacity="0.75"/><ellipse vector-effect="non-scaling-stroke" cx="838.5198806958471" cy="138.72107264185655" rx="4.519880695847064" ry="4.453618775285463" fill="rgb(0,255,255)" fill-opacity="0.75"/><path d=" M 46.131 220.016 Q 50.223 215.984 81.089 192.621 Q 57.378 223.034 53.286 227.066 C 51.24 229.082 49.807 229.82 48.638 229.81 C 47.47 229.801 45.453 229.503 44.465 228.53 C 42.491 226.585 42.039 224.048 46.131 220.016 Z " fill="rgb(0,255,255)" fill-opacity="0.75"/><path d=" M 963.2 220.016 Q 959.108 215.984 928.243 192.621 Q 951.953 223.034 956.046 227.066 C 958.092 229.082 959.525 229.82 960.693 229.81 C 961.862 229.801 963.879 229.503 964.866 228.53 C 966.84 226.585 967.293 224.048 963.2 220.016 Z " fill="rgb(0,255,255)" fill-opacity="0.75"/></g></g></svg>