<?xml version="1.0" encoding="UTF-8" standalone="no"?><!-- Generator: Gravit.io --><svg xmlns="http://www.w3.org/2000/svg" xmlns:xlink="http://www.w3.org/1999/xlink" style="isolation:isolate" viewBox="0 0 1366 640" width="1366pt" height="640pt"><defs><clipPath id="_clipPath_UySvwTQTuQpJEyukS1C6h7O5Z6C5Fi1D"><rect width="1366" height="640"/></clipPath></defs><g clip-path="url(#_clipPath_UySvwTQTuQpJEyukS1C6h7O5Z6C5Fi1D)"><g><linearGradient id="_lgradient_53" x1="-0.14823780773257908" y1="0.7324968855014437" x2="0.8749634581048239" y2="-0.2200690977001254" gradientTransform="matrix(1364,0,0,265.67,-57,327.456)" gradientUnits="userSpaceOnUse"><stop offset="1.3043478260869565%" stop-opacity="1" style="stop-color:rgb(162,0,151)"/><stop offset="99.1304347826087%" stop-opacity="1" style="stop-color:rgb(25,0,106)"/></linearGradient><path d=" M -55 355.929 Q 25.867 460.211 97.764 487.449 C 190.238 522.484 302.95 510.699 351.072 500.087 C 466.321 474.674 576.388 419.132 620.174 402.087 C 657.81 387.436 710.191 366.961 743.532 355.929 C 780.253 343.779 819.494 334.627 844.437 331.454 Q 1130.445 295.071 1307 589.775 L -57 593.126 L -55 355.929 Z " fill="url(#_lgradient_53)"/><defs><filter id="G6txwd3jVtgs0yhdOkNhQJijmwepJ4qq" x="-200%" y="-200%" width="400%" height="400%" filterUnits="objectBoundingBox" color-interpolation-filters="sRGB"><feGaussianBlur xmlns="http://www.w3.org/2000/svg" in="SourceGraphic" stdDeviation="2.146804531419514"/><feOffset xmlns="http://www.w3.org/2000/svg" dx="0" dy="2" result="pf_100_offsetBlur"/><feFlood xmlns="http://www.w3.org/2000/svg" flood-color="#000000" flood-opacity="0.65"/><feComposite xmlns="http://www.w3.org/2000/svg" in2="pf_100_offsetBlur" operator="in" result="pf_100_dropShadow"/><feBlend xmlns="http://www.w3.org/2000/svg" in="SourceGraphic" in2="pf_100_dropShadow" mode="normal"/></filter></defs><g filter="url(#G6txwd3jVtgs0yhdOkNhQJijmwepJ4qq)"><linearGradient id="_lgradient_54" x1="0.7698782295438769" y1="0.5391611382049228" x2="0.1730528922828678" y2="0.8531734811432534" gradientTransform="matrix(1535,0,0,345.638,-87,353.818)" gradientUnits="userSpaceOnUse"><stop offset="2.1739130434782608%" stop-opacity="1" style="stop-color:rgb(107,66,157)"/><stop offset="99.1304347826087%" stop-opacity="1" style="stop-color:rgb(114,0,253)"/></linearGradient><path d=" M -41 408 C -10.8 414.626 4.504 524.204 197.484 565.521 C 216.24 569.536 334.473 578.871 434.708 559.936 C 478.244 551.712 584.601 538.553 784.26 462.767 C 947.175 407.498 1029.725 384.059 1072.579 373.409 C 1295.468 318.018 1464.727 383.648 1446.681 525.313 L 1431.712 699.456 L -87 693.963 L -41 408 Z " fill="url(#_lgradient_54)"/></g></g><g><defs><filter id="aL2yE49Usv9R6TPpOsBOjh9qyjrnOaBm" x="-200%" y="-200%" width="400%" height="400%" filterUnits="objectBoundingBox" color-interpolation-filters="sRGB"><feGaussianBlur xmlns="http://www.w3.org/2000/svg" in="SourceGraphic" stdDeviation="2.146804531419514"/><feOffset xmlns="http://www.w3.org/2000/svg" dx="0" dy="0" result="pf_100_offsetBlur"/><feFlood xmlns="http://www.w3.org/2000/svg" flood-color="#000000" flood-opacity="0.65"/><feComposite xmlns="http://www.w3.org/2000/svg" in2="pf_100_offsetBlur" operator="in" result="pf_100_dropShadow"/><feBlend xmlns="http://www.w3.org/2000/svg" in="SourceGraphic" in2="pf_100_dropShadow" mode="normal"/></filter></defs><g filter="url(#aL2yE49Usv9R6TPpOsBOjh9qyjrnOaBm)"><linearGradient id="_lgradient_55" x1="4.996003610813204e-16" y1="0.5" x2="1" y2="0.5"><stop offset="53.47826086956522%" stop-opacity="0.67" style="stop-color:rgb(61,9,107)"/><stop offset="95.65217391304348%" stop-opacity="1" style="stop-color:rgb(73,201,246)"/></linearGradient><path d=" M 524.737 293.246 C 501.18 275.171 552.391 205.723 639.025 138.258 C 725.66 70.792 815.121 30.693 838.678 48.767 C 862.235 66.842 811.025 136.29 724.39 203.756 C 637.756 271.222 548.294 311.321 524.737 293.246 Z " fill="none" vector-effect="non-scaling-stroke" stroke-width="3" stroke="url(#_lgradient_55)" stroke-linejoin="miter" stroke-linecap="square" stroke-miterlimit="3" style="mix-blend-mode:lighten;"/></g><defs><filter id="BcjgeBiUOuJWvZabcaVqWxObv9FcuDcq" x="-200%" y="-200%" width="400%" height="400%" filterUnits="objectBoundingBox" color-interpolation-filters="sRGB"><feGaussianBlur xmlns="http://www.w3.org/2000/svg" in="SourceGraphic" stdDeviation="2.146804531419514"/><feOffset xmlns="http://www.w3.org/2000/svg" dx="0" dy="0" result="pf_100_offsetBlur"/><feFlood xmlns="http://www.w3.org/2000/svg" flood-color="#000000" flood-opacity="0.65"/><feComposite xmlns="http://www.w3.org/2000/svg" in2="pf_100_offsetBlur" operator="in" result="pf_100_dropShadow"/><feBlend xmlns="http://www.w3.org/2000/svg" in="SourceGraphic" in2="pf_100_dropShadow" mode="normal"/></filter></defs><g filter="url(#BcjgeBiUOuJWvZabcaVqWxObv9FcuDcq)"><linearGradient id="_lgradient_56" x1="4.996003610813204e-16" y1="0.5" x2="1" y2="0.5"><stop offset="53.47826086956522%" stop-opacity="0.67" style="stop-color:rgb(61,9,107)"/><stop offset="95.65217391304348%" stop-opacity="1" style="stop-color:rgb(73,201,246)"/></linearGradient><path d=" M 838.889 292.984 C 826.53 319.764 746.067 286.851 659.316 219.53 C 572.566 152.209 512.169 75.811 524.527 49.03 C 536.885 22.249 617.349 55.163 704.099 122.484 C 790.85 189.805 851.247 266.203 838.889 292.984 Z " fill="none" vector-effect="non-scaling-stroke" stroke-width="3" stroke="url(#_lgradient_56)" stroke-linejoin="miter" stroke-linecap="square" stroke-miterlimit="3" style="mix-blend-mode:lighten;"/></g><defs><filter id="wkC1vxXhgyMYDD96GFObKioe0l40UNPy" x="-200%" y="-200%" width="400%" height="400%" filterUnits="objectBoundingBox" color-interpolation-filters="sRGB"><feGaussianBlur xmlns="http://www.w3.org/2000/svg" in="SourceGraphic" stdDeviation="2.146804531419514"/><feOffset xmlns="http://www.w3.org/2000/svg" dx="0" dy="0" result="pf_100_offsetBlur"/><feFlood xmlns="http://www.w3.org/2000/svg" flood-color="#000000" flood-opacity="0.65"/><feComposite xmlns="http://www.w3.org/2000/svg" in2="pf_100_offsetBlur" operator="in" result="pf_100_dropShadow"/><feBlend xmlns="http://www.w3.org/2000/svg" in="SourceGraphic" in2="pf_100_dropShadow" mode="normal"/></filter></defs><g filter="url(#wkC1vxXhgyMYDD96GFObKioe0l40UNPy)"><linearGradient id="_lgradient_57" x1="4.996003610813204e-16" y1="0.5" x2="1" y2="0.5"><stop offset="53.47826086956522%" stop-opacity="0.67" style="stop-color:rgb(61,9,107)"/><stop offset="95.65217391304348%" stop-opacity="1" style="stop-color:rgb(73,201,246)"/></linearGradient><path d=" M 681.23 -1.076 C 714.451 -0.939 741.095 76.28 740.692 171.255 C 740.289 266.23 712.99 343.226 679.77 343.089 C 646.549 342.953 619.905 265.734 620.308 170.759 C 620.711 75.784 648.01 -1.213 681.23 -1.076 Z " fill="none" vector-effect="non-scaling-stroke" stroke-width="3" stroke="url(#_lgradient_57)" stroke-linejoin="miter" stroke-linecap="square" stroke-miterlimit="3" style="mix-blend-mode:lighten;"/></g><linearGradient id="_lgradient_58" x1="0.5" y1="-0.007915402763734949" x2="0.4999999999999998" y2="1.2196524266936302"><stop offset="1.7391304347826086%" stop-opacity="0" style="stop-color:rgb(73,201,246)"/><stop offset="96.52173913043478%" stop-opacity="1" style="stop-color:rgb(226,78,188)"/></linearGradient><ellipse vector-effect="non-scaling-stroke" cx="680.5000000000005" cy="158.40153370853673" rx="239.5973528178389" ry="45.509850554547484" fill="none" stroke-width="5" stroke="url(#_lgradient_58)" stroke-linejoin="miter" stroke-linecap="square" stroke-miterlimit="3"/><g style="mix-blend-mode:screen;"><linearGradient id="_lgradient_59" x1="0.5" y1="-0.017857142857142856" x2="0.5000000000000001" y2="1.0089285714285714" gradientTransform="matrix(24.919,0,0,24.554,668.04,343.09)" gradientUnits="userSpaceOnUse"><stop offset="1.7391304347826086%" stop-opacity="0.1" style="stop-color:rgb(89,0,218)"/><stop offset="99.1304347826087%" stop-opacity="1" style="stop-color:rgb(255,0,255)"/></linearGradient><ellipse vector-effect="non-scaling-stroke" cx="680.5000000000022" cy="355.36653167571615" rx="12.459537715781494" ry="12.276879598474238" fill="url(#_lgradient_59)"/></g><g style="mix-blend-mode:screen;"><linearGradient id="_lgradient_60" x1="0.5" y1="-0.017857142857142856" x2="0.5000000000000001" y2="1.0089285714285714" gradientTransform="matrix(24.919,0,0,24.554,840.329,50.115)" gradientUnits="userSpaceOnUse"><stop offset="1.7391304347826086%" stop-opacity="0.1" style="stop-color:rgb(89,0,218)"/><stop offset="99.1304347826087%" stop-opacity="1" style="stop-color:rgb(255,0,255)"/></linearGradient><ellipse vector-effect="non-scaling-stroke" cx="852.7882868028986" cy="62.392136395451956" rx="12.459537715781494" ry="12.276879598474267" fill="url(#_lgradient_60)"/></g><g style="mix-blend-mode:screen;"><linearGradient id="_lgradient_61" x1="0.5" y1="-0.017857142857142856" x2="0.5000000000000001" y2="1.0089285714285714" gradientTransform="matrix(24.919,0,0,24.554,499.7,56.703)" gradientUnits="userSpaceOnUse"><stop offset="1.7391304347826086%" stop-opacity="0.1" style="stop-color:rgb(89,0,218)"/><stop offset="99.1304347826087%" stop-opacity="1" style="stop-color:rgb(255,0,255)"/></linearGradient><ellipse vector-effect="non-scaling-stroke" cx="512.1594853465859" cy="68.98028467460784" rx="12.459537715781494" ry="12.276879598474267" fill="url(#_lgradient_61)"/></g></g><g><g opacity="0.25"><linearGradient id="_lgradient_62" x1="0.5222660627555573" y1="0.2657202646211591" x2="0.5222660627555573" y2="1.0223364208033834" gradientTransform="matrix(76.353,0,0,75.233,66.722,108.05)" gradientUnits="userSpaceOnUse"><stop offset="0%" stop-opacity="1" style="stop-color:rgb(226,253,139)"/><stop offset="97.82608695652173%" stop-opacity="1" style="stop-color:rgb(0,247,226)"/></linearGradient><ellipse vector-effect="non-scaling-stroke" cx="104.89799265152233" cy="145.66699633816154" rx="38.17640592592984" ry="37.61673584899316" fill="url(#_lgradient_62)" stroke-width="2" stroke="rgb(185,185,185)" stroke-linejoin="miter" stroke-linecap="square" stroke-miterlimit="3"/></g><ellipse vector-effect="non-scaling-stroke" cx="104.89799265152227" cy="145.66699633816154" rx="30.99025892810762" ry="30.535938512711965" fill="none" stroke-width="2" stroke="rgb(185,185,185)" stroke-opacity="0.25" stroke-linejoin="miter" stroke-linecap="square" stroke-miterlimit="3"/><ellipse vector-effect="non-scaling-stroke" cx="104.89799265152242" cy="145.66699633816154" rx="38.17640592592984" ry="37.61673584899316" fill="none"/><linearGradient id="_lgradient_63" x1="0.5222660627555573" y1="0.2657202646211591" x2="0.5222660627555573" y2="1.0223364208033834" gradientTransform="matrix(50.276,0,0,49.539,79.76,120.898)" gradientUnits="userSpaceOnUse"><stop offset="0%" stop-opacity="1" style="stop-color:rgb(226,253,139)"/><stop offset="97.82608695652173%" stop-opacity="1" style="stop-color:rgb(0,247,226)"/></linearGradient><ellipse vector-effect="non-scaling-stroke" cx="104.89799265152234" cy="145.6669963381613" rx="25.137896376819306" ry="24.769372204414566" fill="url(#_lgradient_63)" stroke-width="2" stroke="rgb(185,185,185)" stroke-opacity="0.25" stroke-linejoin="miter" stroke-linecap="square" stroke-miterlimit="3"/></g><g><linearGradient id="_lgradient_64" x1="0.17771958032268742" y1="0.12821762953468865" x2="0.5101164257297812" y2="0.9490742650625382" gradientTransform="matrix(76.373,0,0,75.253,1252.734,513.456)" gradientUnits="userSpaceOnUse"><stop offset="0%" stop-opacity="1" style="stop-color:rgb(234,177,0)"/><stop offset="96.95652173913044%" stop-opacity="1" style="stop-color:rgb(224,39,77)"/></linearGradient><ellipse vector-effect="non-scaling-stroke" cx="1290.9205674291602" cy="551.082603939886" rx="38.18627719525671" ry="37.62646240448623" fill="url(#_lgradient_64)" fill-opacity="0.25" stroke-width="2" stroke="rgb(185,185,185)" stroke-opacity="0.25" stroke-linejoin="miter" stroke-linecap="square" stroke-miterlimit="3"/><linearGradient id="_lgradient_65" x1="0.17771958032268742" y1="0.12821762953468865" x2="0.5101164257297812" y2="0.9490742650625382" gradientTransform="matrix(49.418,0,0,48.693,1266.212,526.736)" gradientUnits="userSpaceOnUse"><stop offset="0%" stop-opacity="1" style="stop-color:rgb(234,177,0)"/><stop offset="96.95652173913044%" stop-opacity="1" style="stop-color:rgb(224,39,77)"/></linearGradient><ellipse vector-effect="non-scaling-stroke" cx="1290.9205674291622" cy="551.0826039398859" rx="24.708767596930784" ry="24.346534497020457" fill="url(#_lgradient_65)" stroke-width="2" stroke="rgb(185,185,185)" stroke-opacity="0.25" stroke-linejoin="miter" stroke-linecap="square" stroke-miterlimit="3"/><ellipse vector-effect="non-scaling-stroke" cx="1290.9205674291609" cy="551.082603939886" rx="30.998272076149533" ry="30.543834187171" fill="none" stroke-width="2" stroke="rgb(185,185,185)" stroke-opacity="0.25" stroke-linejoin="miter" stroke-linecap="square" stroke-miterlimit="3"/></g><path d=" M 128.051 425.341 L 100.855 428.753 L 97.379 455.549 L 93.916 428.751 L 66.722 425.327 L 93.918 421.914 L 97.393 395.119 L 100.856 421.916 L 128.051 425.341 Z " fill="rgb(0,255,255)" fill-opacity="0.75"/><path d=" M 1324.59 113.193 L 1297.394 116.605 L 1293.919 143.401 L 1290.456 116.603 L 1263.261 113.178 L 1290.457 109.766 L 1293.933 82.971 L 1297.396 109.768 L 1324.59 113.193 Z " fill="rgb(0,255,255)" fill-opacity="0.75"/><path d=" M 291.894 234.117 L 269.797 236.89 L 266.973 258.661 L 264.159 236.889 L 242.064 234.106 L 264.161 231.334 L 266.985 209.562 L 269.798 231.335 L 291.894 234.117 Z " fill="rgb(0,255,255)" fill-opacity="0.75"/><path d=" M 1124.451 299.853 L 1102.354 302.626 L 1099.53 324.397 L 1096.716 302.624 L 1074.621 299.842 L 1096.718 297.069 L 1099.542 275.298 L 1102.355 297.071 L 1124.451 299.853 Z " fill="rgb(0,255,255)" fill-opacity="0.75"/><ellipse vector-effect="non-scaling-stroke" cx="150.99183580353971" cy="468.895463323136" rx="7.342402101677237" ry="7.23476172408067" fill="rgb(0,255,255)" fill-opacity="0.75"/><ellipse vector-effect="non-scaling-stroke" cx="1345.6575978983228" cy="150.63532443482447" rx="7.34240210167718" ry="7.234761724080698" fill="rgb(0,255,255)" fill-opacity="0.75"/><ellipse vector-effect="non-scaling-stroke" cx="309.0107926353523" cy="264.5395223377616" rx="5.965683287212528" ry="5.878225750460331" fill="rgb(0,255,255)" fill-opacity="0.75"/><ellipse vector-effect="non-scaling-stroke" cx="1141.5676889715219" cy="330.2753666173795" rx="5.9656832872126415" ry="5.878225750460331" fill="rgb(0,255,255)" fill-opacity="0.75"/><path d=" M 70.854 276.994 Q 76.256 271.672 116.994 240.836 Q 85.699 280.977 80.298 286.299 C 77.597 288.96 75.705 289.934 74.163 289.921 C 72.621 289.908 69.959 289.516 68.656 288.232 C 66.05 285.664 65.453 282.316 70.854 276.994 Z " fill="rgb(0,255,255)" fill-opacity="0.75"/><path d=" M 1264.945 215.872 Q 1270.346 210.55 1311.084 179.713 Q 1279.79 219.855 1274.388 225.177 C 1271.687 227.838 1269.796 228.812 1268.254 228.799 C 1266.712 228.786 1264.049 228.393 1262.746 227.109 C 1260.14 224.542 1259.543 221.194 1264.945 215.872 Z " fill="rgb(0,255,255)" fill-opacity="0.75"/></g></svg>