<?xml version="1.0" encoding="UTF-8" standalone="no"?><!-- Generator: Gravit.io --><svg xmlns="http://www.w3.org/2000/svg" xmlns:xlink="http://www.w3.org/1999/xlink" style="isolation:isolate" viewBox="0 0 360 640" width="360pt" height="640pt"><defs><clipPath id="_clipPath_phFTbevBf65EddT2SL22jmUYwN7HQcfp"><rect width="360" height="640"/></clipPath></defs><g clip-path="url(#_clipPath_phFTbevBf65EddT2SL22jmUYwN7HQcfp)"><g><linearGradient id="_lgradient_38" x1="-0.14823780773257908" y1="0.7324968855014437" x2="0.8749634581048239" y2="-0.2200690977001254" gradientTransform="matrix(846.207,0,0,164.818,-577,446)" gradientUnits="userSpaceOnUse"><stop offset="1.3043478260869565%" stop-opacity="1" style="stop-color:rgb(162,0,151)"/><stop offset="99.1304347826087%" stop-opacity="1" style="stop-color:rgb(25,0,106)"/></linearGradient><path d=" M -575.759 463.664 Q -525.59 528.359 -480.987 545.258 C -423.617 566.992 -353.692 559.681 -323.838 553.098 C -252.339 537.332 -184.055 502.875 -156.891 492.3 C -133.542 483.211 -101.045 470.508 -80.361 463.664 C -57.58 456.126 -33.235 450.449 -17.761 448.48 Q 159.675 425.909 269.207 608.739 L -577 610.818 L -575.759 463.664 Z " fill="url(#_lgradient_38)"/><defs><filter id="ldxpNQHVcb2mS9yQdJl2vzJi6vN2jKaG" x="-200%" y="-200%" width="400%" height="400%" filterUnits="objectBoundingBox" color-interpolation-filters="sRGB"><feGaussianBlur xmlns="http://www.w3.org/2000/svg" in="SourceGraphic" stdDeviation="2.146804531419514"/><feOffset xmlns="http://www.w3.org/2000/svg" dx="0" dy="2" result="pf_100_offsetBlur"/><feFlood xmlns="http://www.w3.org/2000/svg" flood-color="#000000" flood-opacity="0.65"/><feComposite xmlns="http://www.w3.org/2000/svg" in2="pf_100_offsetBlur" operator="in" result="pf_100_dropShadow"/><feBlend xmlns="http://www.w3.org/2000/svg" in="SourceGraphic" in2="pf_100_dropShadow" mode="normal"/></filter></defs><g filter="url(#ldxpNQHVcb2mS9yQdJl2vzJi6vN2jKaG)"><linearGradient id="_lgradient_39" x1="0.7698782295438769" y1="0.5391611382049228" x2="0.1730528922828678" y2="0.8531734811432534" gradientTransform="matrix(949.636,0,0,220.823,-492.636,455.177)" gradientUnits="userSpaceOnUse"><stop offset="2.1739130434782608%" stop-opacity="1" style="stop-color:rgb(107,66,157)"/><stop offset="99.1304347826087%" stop-opacity="1" style="stop-color:rgb(114,0,253)"/></linearGradient><path d=" M -456.919 495.57 C -438.238 499.68 -439.257 588.523 -319.886 614.156 C -308.284 616.647 -231.888 625.903 -169.886 614.156 C -142.956 609.054 -67.388 595.587 56.114 548.571 C 156.888 514.283 221.268 482.105 244.114 473.725 C 379.144 424.194 467.211 480.077 456.049 567.964 L 446.789 676 L -492.636 672.592 L -456.919 495.57 Z " fill="url(#_lgradient_39)"/></g></g><path d=" M 75.722 533.409 L 57.376 535.826 L 55.031 554.807 L 52.695 535.824 L 34.35 533.398 L 52.696 530.981 L 55.041 512 L 57.377 530.983 L 75.722 533.409 Z " fill="rgb(0,255,255)" fill-opacity="0.75"/><path d=" M 323.429 595.512 L 308.523 597.383 L 306.618 612.069 L 304.72 597.382 L 289.814 595.505 L 304.721 593.634 L 306.626 578.948 L 308.524 593.635 L 323.429 595.512 Z " fill="rgb(0,255,255)" fill-opacity="0.75"/><path d=" M 53.925 93.565 L 39.019 95.435 L 37.114 110.122 L 35.216 95.434 L 20.311 93.557 L 35.217 91.687 L 37.122 77 L 39.02 91.688 L 53.925 93.565 Z " fill="rgb(0,255,255)" fill-opacity="0.75"/><ellipse vector-effect="non-scaling-stroke" cx="91.19753795667395" cy="564.2614442957408" rx="4.953070641880899" ry="5.12490510999578" fill="rgb(0,255,255)" fill-opacity="0.75"/><ellipse vector-effect="non-scaling-stroke" cx="334.97564252958813" cy="616.034640028186" rx="4.024357470411815" ry="3.965359971813882" fill="rgb(0,255,255)" fill-opacity="0.75"/><ellipse vector-effect="non-scaling-stroke" cx="65.47209709861528" cy="114.08692735376498" rx="4.024357470411786" ry="3.965359971813939" fill="rgb(0,255,255)" fill-opacity="0.75"/><path d=" M 323.429 200.062 L 308.523 201.932 L 306.618 216.619 L 304.72 201.931 L 289.814 200.054 L 304.721 198.184 L 306.626 183.497 L 308.524 198.185 L 323.429 200.062 Z " fill="rgb(0,255,255)" fill-opacity="0.75"/><ellipse vector-effect="non-scaling-stroke" cx="334.9756425295881" cy="220.5843511066647" rx="4.024357470411815" ry="3.965359971813939" fill="rgb(0,255,255)" fill-opacity="0.75"/><path d=" M 27.215 221.925 Q 29.762 219.29 48.969 204.024 Q 34.214 223.897 31.668 226.532 C 30.394 227.85 29.503 228.332 28.775 228.325 C 28.048 228.319 26.793 228.124 26.179 227.489 C 24.95 226.218 24.669 224.56 27.215 221.925 Z " fill="rgb(0,255,255)" fill-opacity="0.75"/><path d=" M 296.719 87.161 Q 299.266 84.526 318.473 69.259 Q 303.718 89.133 301.171 91.768 C 299.898 93.085 299.006 93.567 298.279 93.561 C 297.552 93.554 296.297 93.36 295.682 92.724 C 294.454 91.453 294.172 89.796 296.719 87.161 Z " fill="rgb(0,255,255)" fill-opacity="0.75"/></g></svg>