<?xml version="1.0" encoding="UTF-8" standalone="no"?><!-- Generator: Gravit.io --><svg xmlns="http://www.w3.org/2000/svg" xmlns:xlink="http://www.w3.org/1999/xlink" style="isolation:isolate" viewBox="0 0 1024 225" width="1024pt" height="225pt"><defs><clipPath id="_clipPath_hRmEis5YGbjM1bZNb91gA76nd5q0oQD1"><rect width="1024" height="225"/></clipPath></defs><g clip-path="url(#_clipPath_hRmEis5YGbjM1bZNb91gA76nd5q0oQD1)"><g><linearGradient id="_lgradient_20" x1="-0.14823780773257908" y1="0.7324968855014437" x2="0.8749634581048239" y2="-0.2200690977001254" gradientTransform="matrix(1223.863,0,0,231.657,-37.863,7.343)" gradientUnits="userSpaceOnUse"><stop offset="1.3043478260869565%" stop-opacity="1" style="stop-color:rgb(162,0,151)"/><stop offset="99.1304347826087%" stop-opacity="1" style="stop-color:rgb(25,0,106)"/></linearGradient><path d=" M -6 67.955 Q 36.49 141.612 101 166 C 183.973 197.368 285.105 175.501 328.284 166 C 431.692 143.246 550.451 83.216 589.738 67.955 C 623.508 54.837 650.507 41.534 680.423 31.656 C 713.371 20.777 748.58 13.841 770.96 11 Q 1027.585 -21.576 1186 236 L -37.863 239 L -6 67.955 Z " fill="url(#_lgradient_20)"/><defs><filter id="PgPIIE2QRNPoZe3NAkd9brUzxHnrpuwx" x="-200%" y="-200%" width="400%" height="400%" filterUnits="objectBoundingBox" color-interpolation-filters="sRGB"><feGaussianBlur xmlns="http://www.w3.org/2000/svg" in="SourceGraphic" stdDeviation="2.146804531419514"/><feOffset xmlns="http://www.w3.org/2000/svg" dx="0" dy="2" result="pf_100_offsetBlur"/><feFlood xmlns="http://www.w3.org/2000/svg" flood-color="#000000" flood-opacity="0.65"/><feComposite xmlns="http://www.w3.org/2000/svg" in2="pf_100_offsetBlur" operator="in" result="pf_100_dropShadow"/><feBlend xmlns="http://www.w3.org/2000/svg" in="SourceGraphic" in2="pf_100_dropShadow" mode="normal"/></filter></defs><g filter="url(#PgPIIE2QRNPoZe3NAkd9brUzxHnrpuwx)"><linearGradient id="_lgradient_21" x1="0.7698782295438769" y1="0.5391611382049228" x2="0.1730528922828678" y2="0.8531734811432534" gradientTransform="matrix(1095,0,0,272.848,-58,65.152)" gradientUnits="userSpaceOnUse"><stop offset="2.1739130434782608%" stop-opacity="1" style="stop-color:rgb(107,66,157)"/><stop offset="99.1304347826087%" stop-opacity="1" style="stop-color:rgb(114,0,253)"/></linearGradient><path d=" M -27 96 C -5.556 101.932 -28.027 185.007 109 222 C 122.317 225.595 241.27 233.954 312.442 217 C 343.355 209.637 418.875 197.854 560.644 130 C 676.322 80.515 730.767 75.279 765.367 70 C 915.879 47.038 1029.719 108.946 1031 186 L 1037 338 L -58 337 L -27 96 Z " fill="url(#_lgradient_21)"/></g></g></g></svg>