<?xml version="1.0" encoding="UTF-8" standalone="no"?><!-- Generator: Gravit.io --><svg xmlns="http://www.w3.org/2000/svg" xmlns:xlink="http://www.w3.org/1999/xlink" style="isolation:isolate" viewBox="0 0 1024 200" width="1024pt" height="200pt"><defs><clipPath id="_clipPath_wGwoudWBrBAapa0388GiwDc08Z7vcd07"><rect width="1024" height="200"/></clipPath></defs><g clip-path="url(#_clipPath_wGwoudWBrBAapa0388GiwDc08Z7vcd07)"><g><linearGradient id="_lgradient_22" x1="-0.14823780773257908" y1="0.7324968855014437" x2="0.8749634581048239" y2="-0.2200690977001254" gradientTransform="matrix(1223.863,0,0,189.195,-40.863,13.062)" gradientUnits="userSpaceOnUse"><stop offset="1.3043478260869565%" stop-opacity="1" style="stop-color:rgb(162,0,151)"/><stop offset="99.1304347826087%" stop-opacity="1" style="stop-color:rgb(25,0,106)"/></linearGradient><path d=" M -7 29 Q 33.49 107.602 98 127 C 180.973 151.95 282.105 143.557 325.284 136 C 428.692 117.902 527.451 78.348 566.738 66.21 C 600.508 55.776 647.507 41.195 677.423 33.338 C 710.371 24.686 745.58 18.169 767.96 15.909 Q 1024.585 -10.001 1183 199.871 L -40.863 202.257 L -7 29 Z " fill="url(#_lgradient_22)"/><defs><filter id="QLM6O2S5yViDZQ4sSKpSoqDOYCtqmpjx" x="-200%" y="-200%" width="400%" height="400%" filterUnits="objectBoundingBox" color-interpolation-filters="sRGB"><feGaussianBlur xmlns="http://www.w3.org/2000/svg" in="SourceGraphic" stdDeviation="2.146804531419514"/><feOffset xmlns="http://www.w3.org/2000/svg" dx="0" dy="2" result="pf_100_offsetBlur"/><feFlood xmlns="http://www.w3.org/2000/svg" flood-color="#000000" flood-opacity="0.65"/><feComposite xmlns="http://www.w3.org/2000/svg" in2="pf_100_offsetBlur" operator="in" result="pf_100_dropShadow"/><feBlend xmlns="http://www.w3.org/2000/svg" in="SourceGraphic" in2="pf_100_dropShadow" mode="normal"/></filter></defs><g filter="url(#QLM6O2S5yViDZQ4sSKpSoqDOYCtqmpjx)"><linearGradient id="_lgradient_23" x1="0.7698782295438769" y1="0.5391611382049228" x2="0.1730528922828678" y2="0.8531734811432534" gradientTransform="matrix(1095,0,0,217.019,-61,63.981)" gradientUnits="userSpaceOnUse"><stop offset="2.1739130434782608%" stop-opacity="1" style="stop-color:rgb(107,66,157)"/><stop offset="99.1304347826087%" stop-opacity="1" style="stop-color:rgb(114,0,253)"/></linearGradient><path d=" M -20 77 C 1.444 81.719 3.973 159.312 141 188.735 C 154.317 191.595 238.27 198.243 309.442 184.758 C 340.355 178.902 415.875 169.53 557.644 115.56 C 673.322 76.2 727.767 72.035 762.367 67.837 C 912.879 49.573 1026.719 98.814 1028 160.101 L 1034 281 L -61 280.205 L -20 77 Z " fill="url(#_lgradient_23)"/></g></g></g></svg>