<?xml version="1.0" encoding="UTF-8" standalone="no"?><!-- Generator: Gravit.io --><svg xmlns="http://www.w3.org/2000/svg" xmlns:xlink="http://www.w3.org/1999/xlink" style="isolation:isolate" viewBox="0 0 320 200" width="320pt" height="200pt"><defs><clipPath id="_clipPath_tRFwxvs6U0GXjQvLfwf6ytL9NIYyX0P1"><rect width="320" height="200"/></clipPath></defs><g clip-path="url(#_clipPath_tRFwxvs6U0GXjQvLfwf6ytL9NIYyX0P1)"><g><linearGradient id="_lgradient_32" x1="-0.14823780773257908" y1="0.7324968855014437" x2="0.8749634581048239" y2="-0.2200690977001254" gradientTransform="matrix(785.364,0,0,121.408,-500,78)" gradientUnits="userSpaceOnUse"><stop offset="1.3043478260869565%" stop-opacity="1" style="stop-color:rgb(162,0,151)"/><stop offset="99.1304347826087%" stop-opacity="1" style="stop-color:rgb(25,0,106)"/></linearGradient><path d=" M -478.27 88.228 Q -452.287 138.668 -410.89 151.115 C -357.645 167.126 -292.748 161.74 -265.04 156.891 C -198.682 145.277 -135.308 119.895 -110.097 112.106 C -88.427 105.41 -58.267 96.053 -39.07 91.012 C -17.926 85.459 4.667 81.277 19.029 79.827 Q 183.707 63.2 285.364 197.877 L -500 199.408 L -478.27 88.228 Z " fill="url(#_lgradient_32)"/><defs><filter id="vtkszRFUNsVmgE6Zu8dNdv6YXglSWNIx" x="-200%" y="-200%" width="400%" height="400%" filterUnits="objectBoundingBox" color-interpolation-filters="sRGB"><feGaussianBlur xmlns="http://www.w3.org/2000/svg" in="SourceGraphic" stdDeviation="2.146804531419514"/><feOffset xmlns="http://www.w3.org/2000/svg" dx="0" dy="2" result="pf_100_offsetBlur"/><feFlood xmlns="http://www.w3.org/2000/svg" flood-color="#000000" flood-opacity="0.65"/><feComposite xmlns="http://www.w3.org/2000/svg" in2="pf_100_offsetBlur" operator="in" result="pf_100_dropShadow"/><feBlend xmlns="http://www.w3.org/2000/svg" in="SourceGraphic" in2="pf_100_dropShadow" mode="normal"/></filter></defs><g filter="url(#vtkszRFUNsVmgE6Zu8dNdv6YXglSWNIx)"><linearGradient id="_lgradient_33" x1="0.7698782295438769" y1="0.5391611382049228" x2="0.1730528922828678" y2="0.8531734811432534" gradientTransform="matrix(699.422,0,0,157.953,-317,90.047)" gradientUnits="userSpaceOnUse"><stop offset="2.1739130434782608%" stop-opacity="1" style="stop-color:rgb(107,66,157)"/><stop offset="99.1304347826087%" stop-opacity="1" style="stop-color:rgb(114,0,253)"/></linearGradient><path d=" M -290.69 115.091 C -276.929 118.119 -275.306 167.912 -187.375 186.793 C -178.829 188.628 -124.956 192.894 -79.284 184.241 C -59.447 180.483 -10.985 174.469 79.989 139.836 C 154.221 114.578 191.835 103.867 211.362 99 C 312.921 73.687 390.043 103.679 381.821 168.418 L 375 248 L -317 245.49 L -290.69 115.091 Z " fill="url(#_lgradient_33)"/></g></g></g></svg>