<?xml version="1.0" encoding="UTF-8" standalone="no"?><!-- Generator: Gravit.io --><svg xmlns="http://www.w3.org/2000/svg" xmlns:xlink="http://www.w3.org/1999/xlink" style="isolation:isolate" viewBox="0 0 1024 560" width="1024pt" height="560pt"><defs><clipPath id="_clipPath_Z3mQ1IlW7xPhhWKxRlWh2euERKKQzYzI"><rect width="1024" height="560"/></clipPath></defs><g clip-path="url(#_clipPath_Z3mQ1IlW7xPhhWKxRlWh2euERKKQzYzI)"><rect width="1024" height="560" style="fill:rgb(14,9,49)" fill-opacity="0"/><g><g opacity="0.25"><linearGradient id="_lgradient_28" x1="0.5222660627555573" y1="0.2657202646211591" x2="0.5222660627555573" y2="1.0223364208033834" gradientTransform="matrix(52.9,0,0,52.9,55,47)" gradientUnits="userSpaceOnUse"><stop offset="0%" stop-opacity="1" style="stop-color:rgb(226,253,139)"/><stop offset="97.82608695652173%" stop-opacity="1" style="stop-color:rgb(0,247,226)"/></linearGradient><circle vector-effect="non-scaling-stroke" cx="81.44999999999996" cy="73.45" r="26.449999999999974" fill="url(#_lgradient_28)" stroke-width="2" stroke="rgb(185,185,185)" stroke-linejoin="miter" stroke-linecap="square" stroke-miterlimit="3"/></g><circle vector-effect="non-scaling-stroke" cx="81.45000000000003" cy="73.44999999999999" r="21.47117647058812" fill="none" stroke-width="2" stroke="rgb(185,185,185)" stroke-opacity="0.25" stroke-linejoin="miter" stroke-linecap="square" stroke-miterlimit="3"/><circle vector-effect="non-scaling-stroke" cx="81.45000000000005" cy="73.45000000000002" r="26.44999999999996" fill="none"/><linearGradient id="_lgradient_29" x1="0.5222660627555573" y1="0.2657202646211591" x2="0.5222660627555573" y2="1.0223364208033834" gradientTransform="matrix(34.833,0,0,34.833,64.034,56.034)" gradientUnits="userSpaceOnUse"><stop offset="0%" stop-opacity="1" style="stop-color:rgb(226,253,139)"/><stop offset="97.82608695652173%" stop-opacity="1" style="stop-color:rgb(0,247,226)"/></linearGradient><circle vector-effect="non-scaling-stroke" cx="81.4499999999999" cy="73.44999999999986" r="17.41644722808398" fill="url(#_lgradient_29)" stroke-width="2" stroke="rgb(185,185,185)" stroke-opacity="0.25" stroke-linejoin="miter" stroke-linecap="square" stroke-miterlimit="3"/></g><g><linearGradient id="_lgradient_30" x1="0.17771958032268742" y1="0.12821762953468865" x2="0.5101164257297812" y2="0.9490742650625382" gradientTransform="matrix(52.914,0,0,52.914,916.63,472.928)" gradientUnits="userSpaceOnUse"><stop offset="0%" stop-opacity="1" style="stop-color:rgb(234,177,0)"/><stop offset="96.95652173913044%" stop-opacity="1" style="stop-color:rgb(224,39,77)"/></linearGradient><circle vector-effect="non-scaling-stroke" cx="943.0870827381227" cy="499.3845486677657" r="26.456839173760955" fill="url(#_lgradient_30)" fill-opacity="0.25" stroke-width="2" stroke="rgb(185,185,185)" stroke-opacity="0.25" stroke-linejoin="miter" stroke-linecap="square" stroke-miterlimit="3"/><linearGradient id="_lgradient_31" x1="0.17771958032268742" y1="0.12821762953468865" x2="0.5101164257297812" y2="0.9490742650625382" gradientTransform="matrix(34.238,0,0,34.238,925.968,482.265)" gradientUnits="userSpaceOnUse"><stop offset="0%" stop-opacity="1" style="stop-color:rgb(234,177,0)"/><stop offset="96.95652173913044%" stop-opacity="1" style="stop-color:rgb(224,39,77)"/></linearGradient><circle vector-effect="non-scaling-stroke" cx="943.0870827381224" cy="499.38454866776544" r="17.119131230080598" fill="url(#_lgradient_31)" stroke-width="2" stroke="rgb(185,185,185)" stroke-opacity="0.25" stroke-linejoin="miter" stroke-linecap="square" stroke-miterlimit="3"/><circle vector-effect="non-scaling-stroke" cx="943.0870827381231" cy="499.38454866776556" r="21.476728270464605" fill="none" stroke-width="2" stroke="rgb(185,185,185)" stroke-opacity="0.25" stroke-linejoin="miter" stroke-linecap="square" stroke-miterlimit="3"/></g><path d=" M 134.018 438.57 L 115.176 440.97 L 112.768 459.811 L 110.369 440.968 L 91.527 438.56 L 110.37 436.161 L 112.778 417.32 L 115.177 436.162 L 134.018 438.57 Z " fill="rgb(0,255,255)" fill-opacity="0.75"/><path d=" M 928.491 97.137 L 909.649 99.536 L 907.24 118.377 L 904.841 99.535 L 886 97.127 L 904.842 94.728 L 907.251 75.886 L 909.65 94.729 L 928.491 97.137 Z " fill="rgb(0,255,255)" fill-opacity="0.75"/><path d=" M 211.007 135.643 L 195.698 137.593 L 193.741 152.901 L 191.792 137.592 L 176.484 135.635 L 191.793 133.686 L 193.75 118.377 L 195.699 133.687 L 211.007 135.643 Z " fill="rgb(0,255,255)" fill-opacity="0.75"/><path d=" M 791.524 364.476 L 776.214 366.425 L 774.258 381.734 L 772.308 366.424 L 757 364.468 L 772.309 362.518 L 774.266 347.21 L 776.215 362.519 L 791.524 364.476 Z " fill="rgb(0,255,255)" fill-opacity="0.75"/><circle vector-effect="non-scaling-stroke" cx="149.91291726187717" cy="469.19559095939235" r="5.087082738122689" fill="rgb(0,255,255)" fill-opacity="0.75"/><circle vector-effect="non-scaling-stroke" cx="943.0870827381227" cy="123.46456098931583" r="5.087082738122717" fill="rgb(0,255,255)" fill-opacity="0.75"/><circle vector-effect="non-scaling-stroke" cx="222.86675803759732" cy="157.0345599498919" r="4.133241962402678" fill="rgb(0,255,255)" fill-opacity="0.75"/><circle vector-effect="non-scaling-stroke" cx="803.3831115063481" cy="385.8667580375974" r="4.133241962402735" fill="rgb(0,255,255)" fill-opacity="0.75"/><path d=" M 59.56 301.881 Q 63.302 298.139 91.527 276.457 Q 69.845 304.682 66.103 308.424 C 64.232 310.295 62.921 310.98 61.853 310.971 C 60.784 310.962 58.94 310.686 58.037 309.783 C 56.231 307.977 55.818 305.624 59.56 301.881 Z " fill="rgb(0,255,255)" fill-opacity="0.75"/><path d=" M 888.863 305.425 Q 892.605 301.682 920.831 280 Q 899.148 308.225 895.406 311.967 C 893.535 313.838 892.224 314.523 891.156 314.514 C 890.087 314.505 888.243 314.229 887.34 313.326 C 885.534 311.521 885.121 309.167 888.863 305.425 Z " fill="rgb(0,255,255)" fill-opacity="0.75"/></g></svg>